<svg width="11" height="11" viewBox="0 0 11 11" fill="none" xmlns="http://www.w3.org/2000/svg">
<path d="M10.3054 8.164L10.2843 0.0265121L2.14684 0.00539785C2.06206 -0.00608111 1.9758 0.000790212 1.8939 0.0255455C1.81201 0.050301 1.73639 0.0923636 1.67217 0.148884C1.60794 0.205406 1.55661 0.275066 1.52165 0.35315C1.48668 0.431234 1.46891 0.515918 1.46952 0.60147C1.47013 0.687021 1.48911 0.771443 1.52519 0.849019C1.56126 0.926596 1.61358 0.995516 1.67861 1.05111C1.74364 1.10671 1.81985 1.14769 1.90209 1.17127C1.98433 1.19485 2.07067 1.20049 2.15528 1.1878L8.25312 1.21314L0.174749 9.29151C0.062752 9.40351 -0.000167801 9.55541 -0.000167801 9.7138C-0.000167801 9.87219 0.0627527 10.0241 0.17475 10.1361C0.286748 10.2481 0.43865 10.311 0.597038 10.311C0.755427 10.311 0.907328 10.2481 1.01933 10.1361L9.0977 2.05772L9.12303 8.15556C9.12359 8.31403 9.18708 8.4658 9.29954 8.57746C9.412 8.68912 9.5642 8.75154 9.72268 8.75098C9.88116 8.75042 10.0329 8.68693 10.1446 8.57447C10.2562 8.46202 10.3187 8.30981 10.3181 8.15133L10.3054 8.164Z" fill="white"/>
</svg>
