<svg width="101" height="35" viewBox="0 0 101 35" fill="none" xmlns="http://www.w3.org/2000/svg">
<g clip-path="url(#clip0_2729_11)">
<path d="M78.855 16.2805C79.8383 16.2805 80.8663 15.8056 81.6653 14.9899V14.8335C81.3245 15.0346 80.9166 15.1519 80.5199 15.1519C79.3299 15.1519 78.9667 14.4536 78.9667 13.2523V6.05627H81.2015L81.3859 5.51432H78.9667V2.79903H78.4416C77.9164 4.31312 76.7766 5.53667 75.2011 5.92218V6.06185H76.5029V13.7999C76.5029 15.4313 77.4638 16.2917 78.855 16.2917M75.2514 15.9173C74.4692 15.8 74.2234 15.5151 74.2234 14.6994V8.26872C74.2234 6.73229 73.3574 5.21821 71.2511 5.21821C69.5414 5.21821 68.3514 6.27975 67.7536 7.19043V5.26291H67.6586L64.0215 6.16242V6.30209C65.0718 6.34679 65.3232 6.84403 65.3232 7.61504V14.6938C65.3232 15.5095 65.0998 15.8056 64.3399 15.9118L64.0438 15.9565V16.0738H69.0889V15.9565L68.7928 15.9118C68.0665 15.8168 67.7871 15.5095 67.7871 14.6938V7.31893C68.2899 6.72671 69.0386 6.32444 69.8599 6.32444C71.1114 6.32444 71.7315 7.16249 71.7315 8.69892V14.6994C71.7315 15.5151 71.5304 15.8335 70.7929 15.9173L70.4968 15.962V16.0794H75.5195V15.962L75.2234 15.9173H75.2458H75.2514ZM58.8255 16.1911C57.1997 16.1911 56.1717 13.4255 56.1717 10.3974C56.1717 7.36921 57.0601 5.397 58.4065 5.397C60.0323 5.397 61.0604 8.04524 61.0604 11.1684C61.0604 14.0848 60.172 16.1911 58.8255 16.1911ZM58.6188 16.3699C61.3118 16.3699 63.7589 14.0792 63.7589 10.7549C63.7589 7.43067 61.3118 5.21263 58.6468 5.21263C55.9818 5.21263 53.4844 7.5033 53.4844 10.8499C53.4844 14.1965 55.9035 16.3699 58.6244 16.3699M48.3666 8.83301H46.3553V0.50277H48.1823C50.0539 0.50277 51.4954 1.54196 51.4954 4.78243C51.4954 7.47537 50.5847 8.83301 48.3611 8.83301H48.3666ZM48.9645 0.229007H42.003V0.368682L42.3885 0.413378C43.0757 0.508358 43.6903 0.776534 43.6903 1.68163V14.6323C43.6903 15.5318 43.0702 15.7888 42.3885 15.9006L42.003 15.9453V16.085H48.3052V15.9453L47.9197 15.9006C46.9811 15.7609 46.3665 15.5374 46.3665 14.6323V9.11236H49.0818C51.8697 9.11236 54.2163 7.53124 54.2163 4.60923C54.2163 1.68722 51.6351 0.240181 48.9645 0.240181M40.2655 13.677V5.26291H40.1258L36.4328 5.96129V6.10096C37.4943 6.14566 37.7737 6.57586 37.7737 7.39156V13.2076C37.7737 13.6434 37.796 14.0457 37.8463 14.3865C37.3602 14.9508 36.6451 15.286 35.9076 15.286C34.5947 15.286 34.036 14.353 34.036 12.8613V5.26291H33.8963L30.2033 5.96129V6.10096C31.2369 6.14566 31.5441 6.59821 31.5441 7.39156V12.9786C31.5441 14.8558 32.4883 16.3476 34.4717 16.3476C36.1534 16.3476 37.2373 15.4872 37.8686 14.5374C37.9469 15.2357 38.0586 15.6436 38.3994 16.0682H41.6287V15.9229C40.5001 15.7833 40.2766 14.8279 40.2766 13.6714M25.0409 15.286C23.4765 15.286 22.292 13.7719 22.292 10.6041C22.292 7.25747 23.3983 5.40258 25.08 5.40258C25.8677 5.40258 26.3985 5.83837 26.717 6.37473V13.5038C26.717 13.8669 26.7393 14.2021 26.784 14.5206C26.3929 14.9731 25.9124 15.2916 25.0297 15.2916M29.2144 13.677V-6.10352e-05H29.097L25.3817 0.899449V1.01678C26.4655 1.03912 26.7225 1.53637 26.7225 2.32973V5.44169C26.2141 5.30202 25.6834 5.24056 25.2029 5.24056C21.7222 5.24056 19.6438 7.66533 19.6438 11.079C19.6438 14.2021 21.3255 16.3029 23.7 16.3029C25.242 16.3029 26.3315 15.4201 26.8175 14.6938C26.9349 15.3698 27.1025 15.7497 27.3762 16.0626H30.639V15.9229C29.4602 15.7665 29.2199 14.6603 29.2199 13.6658" fill="black"/>
<path d="M96.1526 18.2695V18.3869L96.4934 18.4316C97.6164 18.588 98.298 19.0685 97.6778 20.2641L94.6832 26.0355L91.4651 20.0797C90.8952 18.9903 91.2807 18.588 92.4484 18.4483L92.8339 18.4036V18.264H86.4144V18.3813L86.6602 18.426C87.4815 18.5824 87.8279 18.9456 88.5319 20.1971L92.2305 26.9182V32.6617C92.2305 33.5612 91.6327 33.7009 90.884 33.8797L90.5209 33.9746V34.1143H96.6163V33.9746L96.2308 33.8797C95.4821 33.7232 94.8843 33.5612 94.8843 32.6617V26.231L97.879 20.4373C98.6611 18.9456 99.4321 18.5601 100.164 18.426L100.41 18.3813V18.264H96.1414L96.1526 18.2695ZM80.0061 26.2366H78.1791V18.5433H79.71C81.7213 18.5433 83.4086 19.5378 83.4086 22.5268C83.4086 24.7617 82.4476 25.8735 80.8721 26.1696H80.805C80.5592 26.2143 80.2798 26.2366 80.0061 26.2366ZM88.2972 33.8853C87.3362 33.6618 86.649 32.7958 85.1405 30.5386L82.2185 26.2366C84.3137 25.7841 85.9395 24.5214 85.9395 22.2978C85.9395 19.3814 83.2466 18.2695 80.5704 18.2695H73.8101V18.4092L74.1732 18.4539C74.8772 18.5489 75.4974 18.8171 75.4974 19.7222V32.6729C75.4974 33.5724 74.8772 33.8294 74.1732 33.9411L73.8101 33.9858V34.1255H80.1625V33.9858L79.7994 33.9411C78.6764 33.7623 78.1735 33.578 78.1735 32.6729V26.516H78.8552C79.5591 26.516 79.8161 26.8568 80.386 27.7116L82.9225 31.6504C83.6991 32.8293 84.498 33.8014 84.7048 34.1199H88.6101V33.9802L88.2916 33.8853H88.2972ZM63.7199 34.1087H69.7483V33.9691L69.3628 33.9244C68.698 33.807 68.061 33.5612 68.061 32.6561V18.5321H68.8823C71.4412 18.5321 72.5809 19.8227 73.0838 22.3816H73.2234L72.905 18.2584H60.5744L60.256 22.3816H60.418C60.8985 19.8283 62.0438 18.5321 64.6418 18.5321H65.424V32.6561C65.424 33.5556 64.8038 33.8126 64.0998 33.9244L63.7367 33.9691V34.1087H63.7311H63.7199ZM54.222 34.4272C57.5128 34.4272 59.7699 32.2762 59.7699 29.4883C59.7699 27.2199 58.4458 26.002 55.5461 24.8455L54.5628 24.4655C52.0263 23.4711 51.0877 22.6777 51.0877 21.0742C51.0877 19.4707 52.3168 18.2025 54.222 18.2025C56.6188 18.2025 57.8983 19.7613 58.4234 22.3872H58.5855L58.6972 18.8171C57.8089 18.4763 56.3674 17.9567 54.3561 17.9567C51.5961 17.9567 49.1937 19.8116 49.1937 22.4598C49.1937 24.7672 50.8419 25.9461 53.2163 26.9182L54.127 27.2982C56.0713 28.0692 57.8703 28.8122 57.8703 30.9409C57.8703 32.7511 56.5238 34.1758 54.3952 34.1758C51.3782 34.1758 49.8921 31.6449 49.3054 28.5161H49.1434L49.0037 33.0863C50.0317 33.7232 52.1045 34.4216 54.2108 34.4216M42.02 34.1087H47.9757V33.9691L47.6126 33.9244C46.9477 33.807 46.3331 33.5612 46.3331 32.6561V19.7054C46.3331 18.8059 46.9533 18.5265 47.6126 18.4371L47.9757 18.3925V18.2528H42.02V18.3925L42.4055 18.4371C43.0703 18.5321 43.657 18.8003 43.657 19.7054V32.6561C43.657 33.5556 43.0591 33.8126 42.4055 33.9244L42.02 33.9691V34.1087ZM35.8575 26.1919V26.3093L36.243 26.3539C37.2933 26.4936 37.7291 26.7171 37.7291 27.6446V33.3042C37.0643 33.8964 36.1312 34.1869 35.1479 34.1869C31.9913 34.1869 30.304 30.4995 30.304 25.745C30.304 21.2642 32.2706 18.2081 35.1926 18.2081C37.2039 18.2081 39.2264 19.1802 39.9248 22.3928H40.0868L40.1092 19.0461C38.6454 18.3869 36.7961 17.9567 35.1759 17.9567C30.8124 17.9567 27.3373 21.3033 27.3373 26.2422C27.3373 31.1811 30.628 34.4328 34.9859 34.4328C36.6564 34.4328 38.7069 33.8406 40.3774 32.8014V27.639C40.3774 26.7395 40.8132 26.421 41.5674 26.3484L41.9082 26.3037V26.1863H35.8575V26.1919ZM26.4266 29.5441C25.5159 32.9578 24.2979 33.8461 21.443 33.8461H20.3703C19.3646 33.8461 18.8841 33.55 18.8841 32.5555V26.1025H20.3479C21.8788 26.1025 22.795 26.8959 23.1805 28.5273H23.3202V23.6219H23.1805C22.795 25.1807 21.9905 25.8399 20.3479 25.8399H18.8841V18.5489H21.538C24.1918 18.5489 25.1192 19.5546 25.6444 22.3983H25.7841V18.2751H14.5207V18.4148L14.8838 18.4595C15.5878 18.5545 16.2079 18.8227 16.2079 19.7278V32.6785C16.2079 33.578 15.5878 33.835 14.8838 33.9467L14.5207 33.9914V34.1311H26.2646L26.5607 29.5609H26.421L26.4266 29.5441ZM6.19041 26.2366H4.36346V18.5433H5.8943C7.90563 18.5433 9.59291 19.5378 9.59291 22.5268C9.59291 24.7617 8.63194 25.8735 7.0564 26.1696H6.98936C6.74353 26.2143 6.46418 26.2366 6.19041 26.2366ZM14.4815 33.8853C13.5206 33.6618 12.8334 32.7958 11.3249 30.5386L8.40287 26.2366C10.498 25.7841 12.1238 24.5214 12.1238 22.2978C12.1238 19.3814 9.43088 18.2695 6.7547 18.2695H0V18.4092L0.363156 18.4539C1.06712 18.5489 1.68728 18.8171 1.68728 19.7222V32.6729C1.68728 33.5724 1.06712 33.8294 0.363156 33.9411L0 33.9858V34.1255H6.35244V33.9858L5.98928 33.9411C4.86629 33.7623 4.36346 33.578 4.36346 32.6729V26.516H5.05066C5.75463 26.516 6.01163 26.8568 6.58151 27.7116L9.11801 31.6504C9.90019 32.8293 10.6936 33.8014 10.9003 34.1199H14.8056V33.9802L14.4871 33.8853H14.4815Z" fill="black"/>
<path d="M99.1361 34.1087H99.2981V33.3209C99.2981 33.2036 99.2925 32.9913 99.2925 32.9913C99.2925 32.9913 99.3484 33.1868 99.3875 33.2874L99.7059 34.1087H99.8456L100.164 33.2874C100.198 33.1868 100.259 32.9913 100.259 32.9913C100.259 32.9913 100.253 33.2092 100.253 33.3209V34.1087H100.427V32.8069H100.186L99.9182 33.5165C99.868 33.6617 99.7898 33.9299 99.7898 33.9299C99.7898 33.9299 99.7115 33.6617 99.6557 33.5165L99.3763 32.8069H99.1417V34.1087H99.1361ZM97.9013 32.9689H98.3315V34.1143H98.5159V32.9689H98.9461V32.8125H97.8958V32.9689H97.9013Z" fill="black"/>
</g>
<defs>
<clipPath id="clip0_2729_11">
<rect width="100.421" height="34.4272" fill="white"/>
</clipPath>
</defs>
</svg>
