<svg width="175" height="35" viewBox="0 0 175 35" fill="none" xmlns="http://www.w3.org/2000/svg">
<g clip-path="url(#clip0_2769_2)">
<path d="M78.5145 16.5336C79.4902 16.5336 80.5186 16.0589 81.3097 15.2415V15.0832C80.9669 15.2942 80.5582 15.3997 80.1758 15.3997C78.9892 15.3997 78.6332 14.7009 78.6332 13.4879V6.2627H80.8614L81.046 5.72213H78.6332V2.9929H78.1058C77.5784 4.52232 76.4445 5.7485 74.8756 6.13085V6.2627H76.1677V14.0416C76.1677 15.6765 77.117 16.5467 78.5145 16.5467M74.9283 16.1644C74.1504 16.0457 73.8999 15.7557 73.8999 14.9382V8.47772C73.8999 6.93512 73.0297 5.4057 70.9465 5.4057C69.2457 5.4057 68.0591 6.47365 67.4658 7.3834V5.44525H67.3735L63.7609 6.35499V6.48684C64.8025 6.52639 65.053 7.02741 65.053 7.80531V14.925C65.053 15.7425 64.8289 16.0457 64.0773 16.1512L63.7873 16.1907V16.3094H68.8106V16.1907L68.5206 16.1512C67.7954 16.0589 67.5185 15.7425 67.5185 14.925V7.51524C68.0195 6.92193 68.7711 6.51321 69.5885 6.51321C70.8411 6.51321 71.4476 7.35703 71.4476 8.89963V14.925C71.4476 15.7425 71.2366 16.0589 70.5115 16.1512L70.2214 16.1907V16.3094H75.2184V16.1907L74.9283 16.1512V16.1644ZM58.5661 16.4413C56.9576 16.4413 55.9292 13.6725 55.9292 10.6136C55.9292 7.5548 56.8126 5.59028 58.1574 5.59028C59.7659 5.59028 60.7944 8.25358 60.7944 11.3915C60.7944 14.3185 59.911 16.4413 58.5661 16.4413ZM58.3684 16.6258C61.058 16.6258 63.484 14.3317 63.484 10.9828C63.484 7.6339 61.0449 5.4057 58.3947 5.4057C55.7446 5.4057 53.2527 7.69983 53.2527 11.0619C53.2527 14.424 55.6655 16.6127 58.3684 16.6127M48.1634 9.04466H46.1594V0.672404H47.9789C49.8379 0.672404 51.275 1.71399 51.275 4.9706C51.275 7.67346 50.3653 9.04466 48.1634 9.04466ZM48.7436 0.408711H41.8084V0.540557L42.1908 0.580111C42.8764 0.672404 43.4829 0.949282 43.4829 1.85902V14.8723C43.4829 15.782 42.8632 16.0325 42.1908 16.1512L41.8084 16.1907V16.3226H48.0843V16.1907L47.702 16.1512C46.7659 16.0193 46.1594 15.782 46.1594 14.8723V9.32154H48.8622C51.631 9.32154 53.9779 7.7262 53.9779 4.7992C53.9779 1.87221 51.4069 0.408711 48.7436 0.408711ZM40.0944 13.9098V5.44525H39.9626L36.2841 6.14404V6.27588C37.3388 6.31544 37.6157 6.75053 37.6157 7.56798V13.4088C37.6157 13.8439 37.6421 14.2526 37.6816 14.5954C37.1938 15.1623 36.4818 15.5051 35.7567 15.5051C34.4514 15.5051 33.8976 14.569 33.8976 13.066V5.41888H33.7658L30.0873 6.11767V6.24952C31.1157 6.28907 31.4189 6.75053 31.4189 7.54161V13.1583C31.4189 15.0437 32.355 16.5467 34.3327 16.5467C36.0072 16.5467 37.0883 15.6765 37.708 14.7273C37.7871 15.426 37.8926 15.8348 38.2354 16.2699H41.4393V16.1248C40.3186 15.993 40.0944 15.0173 40.0944 13.8571M24.9321 15.5315C23.3763 15.5315 22.2029 14.0021 22.2029 10.8246C22.2029 7.4625 23.3104 5.59028 24.9848 5.59028C25.7627 5.59028 26.2901 6.02538 26.6197 6.56595V13.7252C26.6197 14.0944 26.6461 14.424 26.6856 14.7536C26.2901 15.2019 25.8154 15.5315 24.9453 15.5315M29.0852 13.9098V0.171387H28.9666L25.2749 1.08113V1.19979C26.356 1.22616 26.6065 1.72718 26.6065 2.51826V5.64302C26.1055 5.51117 25.5781 5.43207 25.0903 5.43207C21.6227 5.43207 19.5527 7.87123 19.5527 11.2992C19.5527 14.4372 21.2272 16.5467 23.6004 16.5467C25.143 16.5467 26.2242 15.6634 26.6988 14.9382C26.8175 15.6238 26.9757 16.0062 27.2526 16.3226H30.496V16.1907C29.3226 16.0325 29.0852 14.925 29.0852 13.923" fill="black"/>
<path d="M95.7338 18.5244V18.6431L96.0766 18.6827C97.1973 18.8409 97.8697 19.3155 97.2632 20.5285L94.2835 26.3298L91.0796 20.3439C90.5127 19.2496 90.8951 18.8409 92.0553 18.709L92.4377 18.6695V18.5376H86.0431V18.6563L86.2936 18.6958C87.1111 18.8541 87.4539 19.2232 88.1526 20.4758L91.8312 27.2263V33.0012C91.8312 33.9109 91.2379 34.0428 90.4863 34.2274L90.1172 34.3197V34.4515H96.1953V34.3197L95.8129 34.2274C95.0614 34.0692 94.4681 33.9109 94.4681 33.0012V26.5407L97.4478 20.7131C98.2257 19.21 98.9904 18.8277 99.7156 18.6827L99.9661 18.6431V18.5244H95.7075H95.7338ZM79.6617 26.5407H77.8422V18.8145H79.3717C81.3757 18.8145 83.0502 19.8165 83.0502 22.8226C83.0502 25.0772 82.1009 26.1847 80.5319 26.488H80.466C80.2155 26.5275 79.9386 26.5539 79.6749 26.5539M87.9153 34.2142C86.966 33.99 86.2804 33.1199 84.7774 30.8521L81.8636 26.5275C83.9599 26.0793 85.5685 24.8003 85.5685 22.5721C85.5685 19.6451 82.8788 18.5244 80.2287 18.5244H73.4913V18.6563L73.8605 18.6958C74.5593 18.7881 75.1789 19.065 75.1789 19.9748V32.988C75.1789 33.8978 74.5593 34.1483 73.8605 34.2669L73.4913 34.3065V34.4383H79.8068V34.3065L79.4376 34.2669C78.3169 34.0823 77.8291 33.8978 77.8291 32.988V26.8044H78.5147C79.2134 26.8044 79.464 27.1472 80.0441 28.0042L82.5623 31.9596C83.3402 33.1462 84.1313 34.1219 84.3423 34.4383H88.2318V34.3065L87.9153 34.2142ZM63.4446 34.4515H69.4436V34.3197L69.0613 34.2801C68.402 34.1614 67.7692 33.9109 67.7692 33.0012V18.8145H68.5866C71.1312 18.8145 72.2651 20.1066 72.7661 22.6776H72.898L72.5816 18.5376H60.3066L59.9902 22.6776H60.1484C60.6231 20.1066 61.757 18.8145 64.3543 18.8145H65.1322V33.0012C65.1322 33.9109 64.5126 34.1614 63.8138 34.2801L63.4446 34.3197V34.4515ZM53.9912 34.7679C57.261 34.7679 59.5156 32.6057 59.5156 29.8105C59.5156 27.5427 58.1971 26.3034 55.3097 25.1431L54.334 24.7608C51.8157 23.7588 50.8796 22.9677 50.8796 21.346C50.8796 19.7242 52.1058 18.4585 53.9912 18.4585C56.3776 18.4585 57.6565 20.0275 58.1839 22.6644H58.3421L58.4476 19.0782C57.5642 18.7354 56.1271 18.208 54.123 18.208C51.3674 18.208 48.981 20.067 48.981 22.7303C48.981 25.0508 50.6159 26.2375 52.9892 27.2131L53.8989 27.5955C55.837 28.3734 57.6302 29.1249 57.6302 31.2608C57.6302 33.0803 56.2853 34.5174 54.1758 34.5174C51.1697 34.5174 49.693 31.9728 49.0997 28.8348H48.9415L48.8096 33.4231C49.838 34.056 51.908 34.7679 53.9912 34.7679ZM41.8481 34.4515H47.7812V34.3197L47.412 34.2801C46.7528 34.1614 46.1331 33.9109 46.1331 33.0012V19.9879C46.1331 19.0782 46.7528 18.8013 47.412 18.709L47.7812 18.6695V18.5376H41.8481V18.6695L42.2305 18.709C42.8897 18.8013 43.483 19.0782 43.483 19.9879V33.0012C43.483 33.9109 42.8897 34.1614 42.2305 34.2801L41.8481 34.3197V34.4515ZM35.7041 26.488V26.6066L36.0864 26.6462C37.128 26.778 37.5631 27.0154 37.5631 27.9383V33.6209C36.9039 34.2142 35.9678 34.5042 34.9921 34.5042C31.8541 34.5042 30.1665 30.7994 30.1665 26.0265C30.1665 21.5305 32.1178 18.4585 35.0316 18.4585C37.0357 18.4585 39.053 19.4342 39.7386 22.6644H39.8968V19.3023C38.4597 18.6431 36.6138 18.208 35.0053 18.208C30.6675 18.208 27.2 21.5701 27.2 26.5275C27.2 31.485 30.4698 34.7548 34.8207 34.7548C36.482 34.7548 38.5256 34.1614 40.1868 33.1199V27.9383C40.1868 27.0285 40.6219 26.7121 41.3735 26.6462L41.7163 26.6066V26.488H35.6909H35.7041ZM26.3166 29.8501C25.4068 33.2781 24.207 34.1746 21.3592 34.1746H20.2912C19.2892 34.1746 18.8145 33.8846 18.8145 32.8825V26.3957H20.2648C21.7942 26.3957 22.704 27.1868 23.0863 28.8348H23.2182V23.9038H23.0863C22.704 25.4728 21.8997 26.132 20.2648 26.132H18.8145V18.8145H21.4514C24.0884 18.8145 25.0113 19.8297 25.5387 22.6776H25.6705V18.5376H14.4636V18.6695L14.8327 18.709C15.5315 18.8013 16.1512 19.0782 16.1512 19.9879V33.0012C16.1512 33.9109 15.5315 34.1614 14.8327 34.2801L14.4636 34.3197V34.4515H26.1584L26.4484 29.8632H26.3166V29.8501ZM6.15724 26.5407H4.33775V18.8145H5.86717C7.87124 18.8145 9.5457 19.8165 9.5457 22.8226C9.5457 25.0772 8.5964 26.1847 7.02742 26.488H6.9615C6.71099 26.5275 6.43411 26.5539 6.17042 26.5539M14.424 34.2142C13.4747 33.99 12.7891 33.1199 11.2861 30.8521L8.37226 26.5275C10.4686 26.0793 12.0772 24.8003 12.0772 22.5721C12.0772 19.6451 9.38748 18.5244 6.73736 18.5244H0V18.6563L0.369171 18.6958C1.06796 18.7881 1.68764 19.065 1.68764 19.9748V32.988C1.68764 33.8978 1.06796 34.1483 0.369171 34.2669L0 34.3065V34.4383H6.31545V34.3065L5.94628 34.2669C4.82559 34.0823 4.33775 33.8978 4.33775 32.988V26.8044H5.02336C5.72214 26.8044 5.97265 27.1472 6.55278 28.0042L9.07105 31.9596C9.84894 33.1462 10.64 34.1219 10.851 34.4383H14.7405V34.3065L14.424 34.2142Z" fill="black"/>
<path d="M98.7137 34.4515H98.8719V33.6604C98.8719 33.5418 98.8719 33.3308 98.8719 33.3308C98.8719 33.3308 98.9247 33.5286 98.9642 33.6341L99.2807 34.4647H99.4257L99.7421 33.6341C99.7817 33.5286 99.8344 33.3308 99.8344 33.3308C99.8344 33.3308 99.8344 33.555 99.8344 33.6604V34.4515H100.006V33.1462H99.7685L99.5048 33.8582C99.4521 34.0032 99.373 34.2669 99.373 34.2669C99.373 34.2669 99.2938 34.0032 99.2411 33.8582L98.9642 33.1462H98.7269V34.4515H98.7137ZM97.4744 33.2913H97.9095V34.4383H98.094V33.2913H98.5291V33.1331H97.4876V33.2913H97.4744Z" fill="black"/>
<path d="M112.36 0H111.648V34.5965H112.36V0Z" fill="black"/>
<path d="M131.939 15.2283C131.833 14.9118 131.702 14.6218 131.53 14.3712C131.359 14.1207 131.161 13.8966 130.924 13.7252C130.686 13.5406 130.423 13.4088 130.119 13.3165C129.816 13.2242 129.5 13.1714 129.144 13.1714C128.537 13.1714 127.997 13.3297 127.509 13.6329C127.021 13.9362 126.639 14.3976 126.362 15.0041C126.085 15.6106 125.94 16.3358 125.94 17.206C125.94 18.0761 126.085 18.8145 126.362 19.4078C126.639 20.0011 127.034 20.4626 127.522 20.779C128.01 21.0954 128.577 21.2405 129.21 21.2405C129.79 21.2405 130.304 21.1218 130.739 20.8845C131.174 20.6471 131.517 20.3043 131.754 19.8824C131.992 19.4473 132.11 18.9331 132.11 18.3398L132.532 18.4189H129.46V17.0873H133.679V18.3135C133.679 19.21 133.481 20.0011 133.099 20.6603C132.717 21.3196 132.189 21.8338 131.517 22.1898C130.845 22.5457 130.08 22.7303 129.21 22.7303C128.234 22.7303 127.39 22.5062 126.652 22.0579C125.913 21.6096 125.347 20.9768 124.938 20.1593C124.529 19.3419 124.331 18.353 124.331 17.2323C124.331 16.3753 124.45 15.6106 124.687 14.925C124.925 14.2394 125.254 13.6593 125.689 13.1846C126.124 12.71 126.625 12.3408 127.219 12.0903C127.799 11.8398 128.445 11.7079 129.144 11.7079C129.724 11.7079 130.264 11.8002 130.765 11.9585C131.266 12.1299 131.715 12.3672 132.11 12.6836C132.506 13 132.822 13.3692 133.086 13.8043C133.35 14.2394 133.521 14.714 133.613 15.2414H131.952L131.939 15.2283Z" fill="#FF0000"/>
<path d="M135.723 22.5722V11.8398H139.546C140.377 11.8398 141.063 11.9849 141.616 12.2749C142.17 12.565 142.579 12.9605 142.856 13.4616C143.133 13.9626 143.265 14.5427 143.265 15.2151C143.265 15.8875 143.133 16.4545 142.856 16.9423C142.579 17.4433 142.17 17.8257 141.616 18.1026C141.063 18.3794 140.377 18.5113 139.546 18.5113H136.646V17.1137H139.401C139.929 17.1137 140.351 17.0346 140.68 16.8896C141.01 16.7445 141.247 16.5204 141.405 16.2303C141.564 15.9403 141.63 15.5975 141.63 15.2019C141.63 14.8064 141.551 14.4504 141.392 14.1472C141.234 13.8439 140.997 13.6198 140.667 13.4616C140.338 13.3033 139.902 13.2242 139.375 13.2242H137.345V22.5722H135.723ZM141.023 17.7334L143.673 22.5722H141.827L139.23 17.7334H141.023Z" fill="#FF0000"/>
<path d="M154.564 17.206C154.564 18.353 154.353 19.3419 153.931 20.1593C153.509 20.9768 152.942 21.6096 152.204 22.0579C151.465 22.5062 150.648 22.7171 149.725 22.7171C148.802 22.7171 147.971 22.493 147.233 22.0579C146.508 21.6096 145.928 20.9768 145.506 20.1593C145.084 19.3287 144.873 18.353 144.873 17.206C144.873 16.0589 145.084 15.07 145.506 14.2526C145.928 13.4351 146.495 12.8023 147.233 12.354C147.958 11.9057 148.789 11.6948 149.725 11.6948C150.661 11.6948 151.479 11.9189 152.204 12.354C152.929 12.7891 153.509 13.422 153.931 14.2526C154.353 15.07 154.564 16.0589 154.564 17.206ZM152.955 17.206C152.955 16.3358 152.81 15.5974 152.533 15.0041C152.256 14.4108 151.861 13.9493 151.386 13.6461C150.898 13.3428 150.345 13.1846 149.738 13.1846C149.132 13.1846 148.565 13.3428 148.077 13.6461C147.589 13.9493 147.207 14.4108 146.93 15.0041C146.653 15.5974 146.508 16.3358 146.508 17.206C146.508 18.0761 146.653 18.8145 146.93 19.4078C147.207 20.0011 147.589 20.4626 148.077 20.7658C148.565 21.0691 149.119 21.2273 149.738 21.2273C150.358 21.2273 150.898 21.0691 151.386 20.7658C151.874 20.4626 152.256 20.0011 152.533 19.4078C152.81 18.8145 152.955 18.0761 152.955 17.206Z" fill="#FF0000"/>
<path d="M163.477 11.8398H165.098V18.8936C165.098 19.6452 164.927 20.3044 164.571 20.8845C164.215 21.4646 163.727 21.9129 163.081 22.2425C162.448 22.5722 161.697 22.7436 160.84 22.7436C159.983 22.7436 159.231 22.5722 158.598 22.2425C157.965 21.9129 157.464 21.4646 157.108 20.8845C156.752 20.3044 156.581 19.6452 156.581 18.8936V11.8398H158.203V18.7618C158.203 19.2496 158.308 19.6847 158.519 20.0539C158.73 20.4362 159.033 20.7263 159.429 20.9373C159.824 21.1482 160.286 21.2537 160.84 21.2537C161.393 21.2537 161.855 21.1482 162.25 20.9373C162.646 20.7263 162.949 20.4231 163.16 20.0539C163.371 19.6715 163.477 19.2496 163.477 18.7618V11.8398Z" fill="#FF0000"/>
<path d="M167.458 22.5722V11.8398H171.282C172.113 11.8398 172.811 11.9981 173.352 12.3013C173.906 12.6046 174.314 13.0265 174.578 13.5407C174.855 14.0681 174.987 14.6614 174.987 15.3206C174.987 15.9798 174.855 16.5731 174.578 17.1005C174.301 17.6279 173.892 18.0366 173.339 18.3531C172.785 18.6563 172.099 18.8145 171.269 18.8145H168.632V17.4433H171.111C171.638 17.4433 172.06 17.351 172.389 17.1664C172.719 16.9819 172.956 16.7314 173.115 16.4149C173.273 16.0985 173.339 15.7293 173.339 15.3338C173.339 14.9382 173.26 14.5691 173.115 14.2526C172.956 13.9362 172.719 13.6857 172.389 13.5143C172.06 13.3297 171.625 13.2506 171.084 13.2506H169.054V22.5985H167.432L167.458 22.5722Z" fill="#FF0000"/>
</g>
<defs>
<clipPath id="clip0_2769_2">
<rect width="175" height="34.768" fill="white"/>
</clipPath>
</defs>
</svg>
