<svg width="64" height="60" viewBox="0 0 64 60" fill="none" xmlns="http://www.w3.org/2000/svg">
<g clip-path="url(#clip0_1916_3)">
<path d="M64 30.1652L57.6661 21.7601V11.3758L47.8348 8.57405L41.835 0L32 3.46267L22.1687 0L16.1689 8.57405L6.33391 11.3758V21.7601L0 30.1652L6.33391 38.0783L5.99977 48.4627L16.0019 51.4296L22.0016 60L32 56.3758L42.0021 60L48.0019 51.4296L58.0002 48.4627L57.6661 38.0783L64 30.1652ZM46.5576 46.645L41.8944 53.306L34.1274 50.4896L26.3604 53.306L21.7009 46.645L13.9302 44.3427L14.19 36.2754L9.27068 30.1285L14.19 23.5998V15.5324L21.8271 13.355L26.4903 6.69767L34.1274 9.38556L41.7645 6.69767L46.4277 13.355L54.0647 15.5324V23.5998L58.9841 30.1285L54.0647 36.2754L54.3246 44.3427L46.5576 46.645Z" fill="white"/>
<path d="M32.3453 37.3479L24.5931 29.6844L26.9581 27.3491L32.3453 32.6771L41.2966 23.8203L43.6616 26.1557L32.3453 37.3479Z" fill="white"/>
</g>
<defs>
<clipPath id="clip0_1916_3">
<rect width="64" height="60" fill="white"/>
</clipPath>
</defs>
</svg>
