<?xml version="1.0" encoding="UTF-8"?><svg id="Layer_1" xmlns="http://www.w3.org/2000/svg" viewBox="0 0 32 32"><defs><style>.cls-1{fill:#fff;}.cls-2{fill:#121221;}</style></defs><rect class="cls-2" width="32" height="32"/><path class="cls-1" d="M26.13,22.26c-.77-.18-1.33-.88-2.54-2.72l-2.36-3.5c1.69-.37,3-1.4,3-3.2,0-2.37-2.17-3.28-4.33-3.28h-5.45v.11l.29.04c.57.07,1.07.29,1.07,1.03v10.53c0,.92-.91,1.06-1.32,1.06-.83,0-1.18-.86-1.18-1.82v-11.13h-.09l-2.99.74v.09c.87.02,1.08.42,1.08,1.07v2.53c-.41-.11-.84-.17-1.23-.17-2.81,0-4.48,1.97-4.48,4.75,0,2.54,1.36,4.25,3.27,4.25,1.25,0,2.12-.72,2.51-1.31.09.55.23.86.45,1.12h2.62s5.12,0,5.12,0v-.11l-.29-.04c-.9-.15-1.31-.29-1.31-1.03v-5.01h.55c.57,0,.77.28,1.23.98l2.04,3.2c.63.96,1.27,1.75,1.44,2.01h3.15v-.11l-.26-.07ZM9.96,21.8c-1.26,0-2.21-1.23-2.21-3.81,0-2.72.89-4.23,2.25-4.23.63,0,1.06.35,1.32.79v5.8c0,.29.02.57.06.83-.32.37-.71.63-1.41.63ZM20.1,15.98c-.2.04-.42.06-.64.06h-1.47v-6.26h1.23c1.62,0,2.98.81,2.98,3.24,0,1.82-.77,2.72-2.04,2.96h-.06Z"/></svg>