<svg width="67" height="53" viewBox="0 0 67 53" fill="none" xmlns="http://www.w3.org/2000/svg">
<g clip-path="url(#clip0_1916_14)">
<path d="M40.4532 0H26.2105C11.7337 0 0 11.8626 0 26.4983V49.5969C0 51.4768 1.50669 53 3.36615 53H40.7895C48.0262 53 54.5805 50.0335 59.3248 45.2372C64.1317 40.3741 67.0824 33.6279 66.9967 26.1884C66.8319 11.6193 54.8673 0 40.4532 0ZM57.3961 42.954C53.42 47.167 47.924 49.7702 41.8544 49.7702H7.65545V26.4983C7.65545 13.6458 17.4968 3.22646 29.6327 3.22646H41.8544C53.9936 3.22646 63.8317 13.6458 63.8317 26.4983C63.8317 32.9246 61.3722 38.7409 57.3961 42.954Z" fill="white"/>
<path d="M36.2826 29.5446C36.2826 31.1045 36.276 32.6644 36.2826 34.2276C36.2892 35.0509 36.0222 35.7042 35.3166 36.1709C34.1594 36.9408 32.6362 36.1375 32.4054 34.8743C32.3527 34.5876 32.3527 34.291 32.3527 34.001C32.3494 31.7411 32.3461 29.4813 32.3527 27.2214C32.3527 26.8381 32.2769 26.6015 31.8746 26.4481C31.146 26.1682 30.6152 25.1949 30.724 24.4816C30.8724 23.4917 31.4131 22.8517 32.3428 22.765C33.167 22.6917 34.0077 22.7117 34.832 22.7817C35.5144 22.8384 36.2167 23.6516 36.2365 24.3783C36.2793 25.8248 36.2661 27.2714 36.276 28.718C36.276 28.9946 36.276 29.2713 36.276 29.5479L36.2826 29.5446Z" fill="white"/>
<path d="M34.344 20.4586C33.2198 20.4619 32.3758 19.612 32.3626 18.4587C32.3494 17.3988 33.2363 16.5222 34.3111 16.5288C35.376 16.5355 36.2397 17.3821 36.276 18.3987C36.3123 19.4253 35.343 20.5553 34.344 20.4586Z" fill="white"/>
</g>
<defs>
<clipPath id="clip0_1916_14">
<rect width="67" height="53" fill="white"/>
</clipPath>
</defs>
</svg>
