<svg width="78" height="78" viewBox="0 0 78 78" fill="none" xmlns="http://www.w3.org/2000/svg">
<g clip-path="url(#clip0_3036_133)">
<path d="M39.0001 78C60.539 78 78.0003 60.539 78.0003 38.9999C78.0003 17.4607 60.539 0 39.0001 0C17.4613 0 0 17.461 0 39.0001C0 60.5393 17.461 78 39.0001 78ZM39.0001 6.23993C57.0634 6.23993 71.7601 20.9366 71.7601 38.9999C71.7601 57.0631 57.0634 71.7598 39.0001 71.7598C20.9369 71.7598 6.24022 57.0631 6.24022 38.9999C6.24022 20.9366 20.9351 6.23993 39.0001 6.23993Z" fill="white" stroke="white" stroke-width="0.485378"/>
<path d="M31.7517 57.3956C33.9059 57.3956 35.6518 55.6501 35.6518 53.4955V23.8555C35.6518 21.7013 33.9062 19.9554 31.7517 19.9554C29.5974 19.9554 27.8516 21.701 27.8516 23.8555V53.4955C27.8516 55.6501 29.5971 57.3956 31.7517 57.3956Z" fill="white" stroke="white" stroke-width="0.485378"/>
<path d="M47.3529 57.3956C49.5072 57.3956 51.253 55.6501 51.253 53.4955V23.8555C51.253 21.7013 49.5075 19.9554 47.3529 19.9554C45.1984 19.9554 43.4531 21.7013 43.4531 23.8555V53.4955C43.4531 55.6501 45.1987 57.3956 47.3529 57.3956Z" fill="white" stroke="white" stroke-width="0.485378"/>
</g>
<defs>
<clipPath id="clip0_3036_133">
<rect width="78" height="78" fill="white"/>
</clipPath>
</defs>
</svg>
