<svg width="78" height="78" viewBox="0 0 78 78" fill="none" xmlns="http://www.w3.org/2000/svg">
<g clip-path="url(#clip0_622_435)">
<path fill-rule="evenodd" clip-rule="evenodd" d="M0 38.9982C0 17.459 17.4627 -0.00369263 39.0018 -0.00369263C60.541 -0.00369263 78.0037 17.459 78.0037 38.9982C78.0037 60.5373 60.541 78 39.0018 78C17.4627 78 0 60.5373 0 38.9982ZM40.1845 22.0714C39.7041 21.2842 38.2959 21.2842 37.8155 22.0714L22.3338 47.4431C21.1252 49.424 22.4446 49.9895 23.1579 49.9895H54.8384C55.5554 49.9895 56.8711 49.424 55.6625 47.4431L40.1808 22.0714H40.1845ZM4.80455 38.9982C4.80455 57.8874 20.1126 73.1955 39.0018 73.1955C57.8911 73.1955 73.1991 57.8837 73.1991 38.9982C73.1991 20.1126 57.8874 4.80086 39.0018 4.80086C20.1163 4.80086 4.80455 20.1126 4.80455 38.9982Z" fill="white"/>
</g>
<defs>
<clipPath id="clip0_622_435">
<rect width="78" height="78" fill="white" transform="matrix(0 -1 1 0 0 78)"/>
</clipPath>
</defs>
</svg>
