<svg width="78" height="78" viewBox="0 0 78 78" fill="none" xmlns="http://www.w3.org/2000/svg">
<g clip-path="url(#clip0_911_441)">
<path fill-rule="evenodd" clip-rule="evenodd" d="M38.9979 0C60.5371 0 77.9998 17.4627 77.9998 39.0018C77.9998 60.541 60.5371 78.0037 38.9979 78.0037C17.4588 78.0037 -0.00390625 60.541 -0.00390625 39.0018C-0.00390625 17.4627 17.4588 0 38.9979 0ZM55.9247 40.1845C56.7119 39.7041 56.7119 38.2959 55.9247 37.8155L30.553 22.3338C28.5721 21.1252 28.0066 22.4446 28.0066 23.1579V54.8384C28.0066 55.5554 28.5721 56.8711 30.553 55.6625L55.9247 40.1808V40.1845ZM38.9979 4.80455C20.1087 4.80455 4.80064 20.1126 4.80064 39.0018C4.80064 57.8911 20.1124 73.1991 38.9979 73.1991C57.8835 73.1991 73.1952 57.8874 73.1952 39.0018C73.1952 20.1163 57.8835 4.80455 38.9979 4.80455Z" fill="white"/>
</g>
<defs>
<clipPath id="clip0_911_441">
<rect width="78" height="78" fill="white" transform="translate(78) rotate(90)"/>
</clipPath>
</defs>
</svg>
