<svg width="59" height="54" viewBox="0 0 59 54" fill="none" xmlns="http://www.w3.org/2000/svg">
<g clip-path="url(#clip0_1916_8)">
<path d="M43.6014 0H15.395C6.8931 0 0 6.30841 0 14.09V50.3337C0 52.3598 1.61975 54 3.62062 54H43.6014C52.1032 54 59 47.6879 59 39.9063V14.09C59 6.30841 52.1032 0 43.6014 0ZM55.449 38.3106C55.449 45.1311 49.9631 50.6565 43.1983 50.6565H8.50919V15.6894C8.50919 8.86888 13.9914 3.33975 20.7563 3.33975H43.1983C49.9631 3.33975 55.449 8.86888 55.449 15.6894V38.3106Z" fill="white"/>
<path d="M37.2263 25.9042C37.2263 21.5455 33.8114 18 29.6132 18C25.4149 18 22 21.5455 22 25.9042C22 30.263 25.4149 33.8085 29.6132 33.8085C31.1827 33.8085 32.6424 33.3125 33.8559 32.4654L41.113 40L43 38.0409L35.7755 30.5402C36.6864 29.2372 37.2263 27.6354 37.2263 25.9073V25.9042ZM24.6702 25.9042C24.6702 23.0734 26.8865 20.7723 29.6132 20.7723C32.3398 20.7723 34.5561 23.0734 34.5561 25.9042C34.5561 28.7351 32.3398 31.0361 29.6132 31.0361C26.8865 31.0361 24.6702 28.7351 24.6702 25.9042Z" fill="white"/>
</g>
<defs>
<clipPath id="clip0_1916_8">
<rect width="59" height="54" fill="white"/>
</clipPath>
</defs>
</svg>
